<?xml version="1.0" encoding="UTF-8"?>
<svg version="1.1" xmlns="http://www.w3.org/2000/svg" width="102" height="78">
<path d="M0 0 C15.89026523 -0.55217138 15.89026523 -0.55217138 22 3 C22.99 3.495 22.99 3.495 24 4 C24.53489797 8.61880155 25.01650452 13.03475793 22.828125 17.265625 C20.29321718 20.33165636 18.0146697 22.53632305 14.3671875 24.203125 C8.61413834 26.86330929 5.93391693 29.51621014 3.69140625 35.42578125 C2.27906973 39.58941009 1.05134161 43.79062013 -0.1484375 48.01953125 C-4.25383461 62.16922307 -4.25383461 62.16922307 -10 66 C-13.81736412 62.95062629 -14.98616758 58.36273766 -16.57421875 53.91796875 C-17.35534394 51.8042438 -17.35534394 51.8042438 -19 49 C-21.58363196 47.95949462 -21.58363196 47.95949462 -24 48 C-25.6371474 51.59435994 -26.24140626 54.35976468 -26.1953125 58.30078125 C-26.18564453 59.76547852 -26.18564453 59.76547852 -26.17578125 61.25976562 C-26.15902344 62.26716797 -26.14226563 63.27457031 -26.125 64.3125 C-26.11597656 65.33923828 -26.10695312 66.36597656 -26.09765625 67.42382812 C-26.07416201 69.94945899 -26.04131131 72.4746081 -26 75 C-27.32 75 -28.64 75 -30 75 C-31.83229804 72.83623096 -33.30700574 70.81541038 -34.8125 68.4375 C-35.4629126 67.43650269 -35.4629126 67.43650269 -36.12646484 66.4152832 C-47 49.25805691 -47 49.25805691 -47 43 C-47.57967529 42.98541748 -48.15935059 42.97083496 -48.7565918 42.95581055 C-51.40087553 42.88101472 -54.04394002 42.78446102 -56.6875 42.6875 C-57.59951172 42.66494141 -58.51152344 42.64238281 -59.45117188 42.61914062 C-65.69788481 42.36927211 -69.4566493 41.5433507 -74 37 C-74.13086006 31.5038774 -71.35419768 28.61554448 -67.88671875 24.734375 C-65.96950773 22.97196984 -64.44883083 21.87981946 -62 21 C-61.01 21.33 -60.02 21.66 -59 22 C-59.77537109 22.77923828 -59.77537109 22.77923828 -60.56640625 23.57421875 C-61.22511719 24.27160156 -61.88382813 24.96898438 -62.5625 25.6875 C-63.22378906 26.37199219 -63.88507812 27.05648438 -64.56640625 27.76171875 C-66.29564455 29.95007705 -66.29564455 29.95007705 -65.71484375 32.76953125 C-65.47894531 33.50558594 -65.24304688 34.24164063 -65 35 C-60.01770224 36.91626837 -55.27315333 37.5547115 -50 38 C-50.474375 36.9275 -50.94875 35.855 -51.4375 34.75 C-53.9251704 28.03686073 -55.14781245 20.42174701 -52.875 13.5 C-50.89636044 9.80653949 -49.67044741 8.00206223 -46 6 C-41.78388321 5.38674665 -39.68072068 5.62490901 -35.9375 7.6875 C-33.8661858 9.31810905 -31.86850195 10.96879155 -29.875 12.6875 C-27.35941123 14.71090836 -26.12621258 15.63928316 -23 16 C-23.66 15.67 -24.32 15.34 -25 15 C-25 14.01 -25 13.02 -25 12 C-24.16597656 11.89042969 -23.33195312 11.78085938 -22.47265625 11.66796875 C-17.13879282 10.91646222 -12.10489612 10.19270399 -7.0625 8.25 C-3.96373825 7.12989713 -3.03493461 6.99417756 0.375 7.5625 C6.16130518 10.73119093 7.1949718 16.00884257 9 22 C13.42841439 18.76845436 16.51031918 15.93808489 17.4375 10.375 C17.22433788 7.90645012 17.22433788 7.90645012 15.359375 6.44921875 C12.54214893 4.71877029 10.03996876 4.1254501 6.8125 3.4375 C4.86082753 3.01979017 2.91742862 2.55405275 1 2 C0.505 1.01 0.505 1.01 0 0 Z M-19 18 C-19 18.33 -19 18.66 -19 19 C-16.36 19 -13.72 19 -11 19 C-11 18.67 -11 18.34 -11 18 C-13.64 18 -16.28 18 -19 18 Z M0 26 C-2.47817837 26.99496008 -2.47817837 26.99496008 -5.125 28.4375 C-6.03507812 28.91058594 -6.94515625 29.38367188 -7.8828125 29.87109375 C-8.93082031 30.42990234 -8.93082031 30.42990234 -10 31 C-7.09158479 32.342681 -7.09158479 32.342681 -4.73828125 31.00390625 C-3.53751953 30.29041016 -3.53751953 30.29041016 -2.3125 29.5625 C-1.50425781 29.08941406 -0.69601563 28.61632812 0.13671875 28.12890625 C0.75160156 27.75636719 1.36648437 27.38382813 2 27 C1.34 26.67 0.68 26.34 0 26 Z M-13 32 C-13.66 32.66 -14.32 33.32 -15 34 C-13.35 33.67 -11.7 33.34 -10 33 C-10.99 32.67 -11.98 32.34 -13 32 Z M-26.1875 36.5 C-27.53908203 36.91765625 -27.53908203 36.91765625 -28.91796875 37.34375 C-29.60503906 37.5603125 -30.29210938 37.776875 -31 38 C-31 38.33 -31 38.66 -31 39 C-23.86398354 38.71717874 -23.86398354 38.71717874 -18 35 C-21.09875672 35 -23.24421515 35.58261252 -26.1875 36.5 Z M-40 40 C-36 41 -36 41 -36 41 Z " fill="#298EB9" transform="translate(78,0)"/>
<path d="M0 0 C15.89026523 -0.55217138 15.89026523 -0.55217138 22 3 C22.99 3.495 22.99 3.495 24 4 C24.53489797 8.61880155 25.01650452 13.03475793 22.828125 17.265625 C20.29321718 20.33165636 18.0146697 22.53632305 14.3671875 24.203125 C8.61413834 26.86330929 5.93391693 29.51621014 3.69140625 35.42578125 C2.27906973 39.58941009 1.05134161 43.79062013 -0.1484375 48.01953125 C-4.25383461 62.16922307 -4.25383461 62.16922307 -10 66 C-13.81736412 62.95062629 -14.98616758 58.36273766 -16.57421875 53.91796875 C-17.35534394 51.8042438 -17.35534394 51.8042438 -19 49 C-21.58363196 47.95949462 -21.58363196 47.95949462 -24 48 C-25.6371474 51.59435994 -26.24140626 54.35976468 -26.1953125 58.30078125 C-26.18886719 59.27724609 -26.18242188 60.25371094 -26.17578125 61.25976562 C-26.15902344 62.26716797 -26.14226563 63.27457031 -26.125 64.3125 C-26.11597656 65.33923828 -26.10695313 66.36597656 -26.09765625 67.42382812 C-26.07416201 69.94945899 -26.04131131 72.4746081 -26 75 C-27.32 75 -28.64 75 -30 75 C-31.83233755 72.8361843 -33.30730892 70.8156844 -34.8125 68.4375 C-35.46182495 67.43541504 -35.46182495 67.43541504 -36.12426758 66.41308594 C-39.12177994 61.67334915 -41.77831055 56.81286192 -44.1875 51.75 C-44.49083252 51.11892334 -44.79416504 50.48784668 -45.10668945 49.83764648 C-47.12644859 45.37934577 -47.12644859 45.37934577 -46 42 C-42.51756907 40.25878454 -38.49693314 40.5937644 -34.65234375 40.37890625 C-33.77707031 40.25386719 -32.90179688 40.12882812 -32 40 C-31.67 39.34 -31.34 38.68 -31 38 C-28.87795669 37.80650707 -26.75590194 37.61313865 -24.63378906 37.42041016 C-19.90504255 36.66559912 -15.71616041 34.64227324 -11.375 32.6875 C-10.47265625 32.29626953 -9.5703125 31.90503906 -8.640625 31.50195312 C0.81911338 27.7250254 0.81911338 27.7250254 8 21 C8.66 21 9.32 21 10 21 C15.00805157 16.53995284 15.00805157 16.53995284 17.375 10.5 C17.24923953 7.91803668 17.24923953 7.91803668 15.36328125 6.44140625 C12.54423638 4.72202186 10.03606306 4.12461758 6.8125 3.4375 C4.86082753 3.01979017 2.91742862 2.55405275 1 2 C0.505 1.01 0.505 1.01 0 0 Z " fill="#969C9E" transform="translate(78,0)"/>
<path d="M0 0 C2.24538034 3.84344382 3.1026736 7.9638019 4.125 12.25 C4.30675781 12.99507812 4.48851563 13.74015625 4.67578125 14.5078125 C5.12147499 16.3375026 5.56131959 18.16861575 6 20 C17.49252909 18.1595094 28.52821348 16.35437555 39.3203125 11.85546875 C42.11232615 10.96414078 43.31118043 10.95148902 46 12 C26.11067194 20 26.11067194 20 19 20 C18.67 20.66 18.34 21.32 18 22 C11.4780787 23.19275466 4.92761741 23.21614143 -1.6875 23.25 C-2.70650391 23.270625 -3.72550781 23.29125 -4.77539062 23.3125 C-13.99484883 23.36073785 -13.99484883 23.36073785 -18 20 C-20 18 -20 18 -20.0625 15.375 C-18.38147834 10.03528414 -14.69632665 5.71162609 -9.95703125 2.703125 C-8 2 -8 2 -5 3 C-5.51691406 3.51949219 -6.03382812 4.03898437 -6.56640625 4.57421875 C-7.55447266 5.62029297 -7.55447266 5.62029297 -8.5625 6.6875 C-9.22378906 7.37199219 -9.88507812 8.05648438 -10.56640625 8.76171875 C-12.29564455 10.95007705 -12.29564455 10.95007705 -11.71484375 13.76953125 C-11.47894531 14.50558594 -11.24304687 15.24164063 -11 16 C-6.01770224 17.91626837 -1.27315333 18.5547115 4 19 C3.525625 17.906875 3.05125 16.81375 2.5625 15.6875 C0.61291255 10.56523487 0.28970046 5.43438112 0 0 Z " fill="#428EAC" transform="translate(24,19)"/>
<path d="M0 0 C-0.49371094 0.53109375 -0.98742188 1.0621875 -1.49609375 1.609375 C-2.13675781 2.31578125 -2.77742188 3.0221875 -3.4375 3.75 C-4.07558594 4.44609375 -4.71367187 5.1421875 -5.37109375 5.859375 C-6.99081325 7.98792725 -7.58267256 9.39023405 -8 12 C-9.32 12 -10.64 12 -12 12 C-10.92598892 14.91517292 -10.22189824 16.77810176 -8 19 C-10.28155293 18.60662881 -11.86700007 18.08713789 -13.8125 16.8125 C-15 15 -15 15 -15.125 12.3125 C-13.33273254 7.03526805 -9.67926001 2.7007922 -4.95703125 -0.296875 C-3 -1 -3 -1 0 0 Z " fill="#428BAA" transform="translate(19,22)"/>
<path d="M0 0 C4.5 4.5 4.5 4.5 4.75 9.25 C4.80671875 10.14203125 4.8634375 11.0340625 4.921875 11.953125 C4.96054688 12.96632813 4.96054688 12.96632813 5 14 C2.88002166 15.19733988 0.75486324 16.38298713 -1.375 17.5625 C-2.27992187 18.07586914 -2.27992187 18.07586914 -3.203125 18.59960938 C-4.76978241 19.46127095 -6.38290862 20.23718183 -8 21 C-8.66 20.67 -9.32 20.34 -10 20 C-5.69057078 16.10099261 -3.88260044 14.96086681 2 13 C1.34 8.71 0.68 4.42 0 0 Z " fill="#468BA8" transform="translate(80,9)"/>
<path d="M0 0 C1.32 0 2.64 0 4 0 C4.66 0.99 5.32 1.98 6 3 C8.64691668 3.80092254 8.64691668 3.80092254 11.625 4.1875 C13.12933594 4.42533203 13.12933594 4.42533203 14.6640625 4.66796875 C15.43492188 4.77753906 16.20578125 4.88710938 17 5 C16.67 5.66 16.34 6.32 16 7 C14.08404032 7.08133791 12.16708068 7.13934367 10.25 7.1875 C8.64898438 7.23970703 8.64898438 7.23970703 7.015625 7.29296875 C3.65384335 6.96637079 2.28606246 6.4691694 0 4 C0 2.68 0 1.36 0 0 Z " fill="#2E8DB4" transform="translate(7,34)"/>
<path d="M0 0 C0 0.99 0 1.98 0 3 C2.64 3 5.28 3 8 3 C7.67 4.32 7.34 5.64 7 7 C5.56344146 7.08131463 4.1255517 7.13933559 2.6875 7.1875 C1.48673828 7.23970703 1.48673828 7.23970703 0.26171875 7.29296875 C-2 7 -2 7 -3.73046875 5.67578125 C-5 4 -5 4 -6 1 C-3 0 -3 0 0 0 Z M-2 4 C-2 4.33 -2 4.66 -2 5 C0.64 5 3.28 5 6 5 C6 4.67 6 4.34 6 4 C3.36 4 0.72 4 -2 4 Z " fill="#338AAC" transform="translate(61,14)"/>
<path d="M0 0 C0.7734375 0.3403125 0.7734375 0.3403125 1.5625 0.6875 C-18.32682806 8.6875 -18.32682806 8.6875 -25.4375 8.6875 C-25.7675 9.3475 -26.0975 10.0075 -26.4375 10.6875 C-27.0975 10.0275 -27.7575 9.3675 -28.4375 8.6875 C-25.5564971 5.8064971 -22.11434159 5.56337367 -18.25 4.75 C-13.84856469 3.82237747 -9.72353178 2.91461633 -5.63671875 0.99609375 C-2.4375 -0.3125 -2.4375 -0.3125 0 0 Z " fill="#4F8EA4" transform="translate(68.4375,30.3125)"/>
<path d="M0 0 C8.5623347 -0.68498678 12.86118872 3.79535565 19 9 C20.32491874 10.0111222 21.65434813 11.01663902 23 12 C18.15409462 11.55946315 14.51858133 9.25494123 11 6 C11 5.34 11 4.68 11 4 C7.37 3.01 3.74 2.02 0 1 C0 0.67 0 0.34 0 0 Z " fill="#428AA7" transform="translate(32,6)"/>
<path d="M0 0 C0.99 0.33 1.98 0.66 3 1 C-0.465 3.97 -0.465 3.97 -4 7 C-4 6.34 -4 5.68 -4 5 C-4.66 4.67 -5.32 4.34 -6 4 C-3.1875 1.9375 -3.1875 1.9375 0 0 Z " fill="#5A8FA1" transform="translate(16,21)"/>
<path d="M0 0 C1.32 0 2.64 0 4 0 C4.33 1.32 4.66 2.64 5 4 C4.01 4.495 4.01 4.495 3 5 C2.01 4.67 1.02 4.34 0 4 C0 2.68 0 1.36 0 0 Z " fill="#258FBA" transform="translate(7,34)"/>
<path d="M0 0 C0.99 0 1.98 0 3 0 C2.67 2.64 2.34 5.28 2 8 C1.67 8 1.34 8 1 8 C1 6.35 1 4.7 1 3 C0.01 3.33 -0.98 3.66 -2 4 C-1.34 2.68 -0.68 1.36 0 0 Z " fill="#458BAB" transform="translate(9,26)"/>
</svg>
